<?xml version="1.0" standalone="no"?>
<!DOCTYPE svg PUBLIC "-//W3C//DTD SVG 1.1//EN" "http://www.w3.org/Graphics/SVG/1.1/DTD/svg11.dtd">
<!--Generator: Xara Designer (www.xara.com), SVG filter version: 4.0.0.1-->
<svg stroke-width="0.501" stroke-linejoin="bevel" fill-rule="evenodd" xmlns:xlink="http://www.w3.org/1999/xlink" xmlns="http://www.w3.org/2000/svg" version="1.1" overflow="visible" width="675pt" height="637.5pt" viewBox="0 0 675 637.5">
 <defs>
  <marker id="DefaultArrow2" markerUnits="strokeWidth" viewBox="0 0 1 1" markerWidth="1" markerHeight="1" overflow="visible" orient="auto">
   <!-- REF_ARROW_STRAIGHT (-2) -->
   <g transform="scale(0.0092592592)">
    <!-- 1/108 -->
    <path d="M -9 54 L -9 -54 L 117 0 z"/>
   </g>
  </marker>
  <marker id="DefaultArrow3" markerUnits="strokeWidth" viewBox="0 0 1 1" markerWidth="1" markerHeight="1" overflow="visible" orient="auto">
   <!-- REF_ARROW_ANGLED -->
   <g transform="scale(0.0092592592)">
    <path d="M -27 54 L -9 0 L -27 -54 L 135 0 z"/>
   </g>
  </marker>
  <marker id="DefaultArrow4" markerUnits="strokeWidth" viewBox="0 0 1 1" markerWidth="1" markerHeight="1" overflow="visible" orient="auto">
   <!-- REF_ARROW_ROUNDED -->
   <g transform="scale(0.0092592592)">
    <path d="M -9,0 L -9,-45 C -9,-51.708 2.808,-56.580 9,-54 L 117,-9 C 120.916,-7.369 126.000,-4.242 126,0 C 126,4.242 120.916,7.369 117,9 L 9,54 C 2.808,56.580 -9,51.708 -9,45 z"/>
   </g>
  </marker>
  <marker id="DefaultArrow5" markerUnits="strokeWidth" viewBox="0 0 1 1" markerWidth="1" markerHeight="1" overflow="visible" orient="auto">
   <!-- REF_ARROW_SPOT -->
   <g transform="scale(0.0092592592)">
    <path d="M -54, 0 C -54,29.807 -29.807,54 0,54 C 29.807,54 54,29.807 54,0 C 54,-29.807 29.807,-54 0,-54 C -29.807,-54 -54,-29.807 -54,0 z"/>
   </g>
  </marker>
  <marker id="DefaultArrow6" markerUnits="strokeWidth" viewBox="0 0 1 1" markerWidth="1" markerHeight="1" overflow="visible" orient="auto">
   <!-- REF_ARROW_DIAMOND -->
   <g transform="scale(0.0092592592)">
    <path d="M -63,0 L 0,63 L 63,0 L 0,-63 z"/>
   </g>
  </marker>
  <marker id="DefaultArrow7" markerUnits="strokeWidth" viewBox="0 0 1 1" markerWidth="1" markerHeight="1" overflow="visible" orient="auto">
   <!-- REF_ARROW_FEATHER -->
   <g transform="scale(0.0092592592)">
    <path d="M 18,-54 L 108,-54 L 63,0 L 108,54 L 18, 54 L -36,0 z"/>
   </g>
  </marker>
  <marker id="DefaultArrow8" markerUnits="strokeWidth" viewBox="0 0 1 1" markerWidth="1" markerHeight="1" overflow="visible" orient="auto">
   <!-- REF_ARROW_FEATHER2 -->
   <g transform="scale(0.0092592592)">
    <path d="M -36,0 L 18,-54 L 54,-54 L 18,-18 L 27,-18 L 63,-54 L 99,-54 L 63,-18 L 72,-18 L 108,-54 L 144,-54 L 90,0 L 144,54 L 108,54 L 72,18 L 63,18 L 99,54 L 63,54 L 27,18 L 18,18 L 54,54 L 18,54 z"/>
   </g>
  </marker>
  <marker id="DefaultArrow9" markerUnits="strokeWidth" viewBox="0 0 1 1" markerWidth="1" markerHeight="1" overflow="visible" orient="auto">
   <!-- REF_ARROW_HOLLOWDIAMOND -->
   <g transform="scale(0.0092592592)">
    <path d="M 0,45 L -45,0 L 0, -45 L 45, 0 z M 0, 63 L-63, 0 L 0, -63 L 63, 0 z"/>
   </g>
  </marker>
  <filter id="StainedFilter">
   <feBlend mode="multiply" in2="BackgroundImage" in="SourceGraphic" result="blend"/>
   <feComposite in="blend" in2="SourceAlpha" operator="in" result="comp"/>
  </filter>
  <filter id="BleachFilter">
   <feBlend mode="screen" in2="BackgroundImage" in="SourceGraphic" result="blend"/>
   <feComposite in="blend" in2="SourceAlpha" operator="in" result="comp"/>
  </filter>
  <filter id="InvertTransparencyBitmapFilter">
   <feComponentTransfer>
    <feFuncR type="gamma" amplitude="1.055" exponent=".416666666" offset="-0.055"/>
    <feFuncG type="gamma" amplitude="1.055" exponent=".416666666" offset="-0.055"/>
    <feFuncB type="gamma" amplitude="1.055" exponent=".416666666" offset="-0.055"/>
   </feComponentTransfer>
   <feComponentTransfer>
    <feFuncR type="linear" slope="-1" intercept="1"/>
    <feFuncG type="linear" slope="-1" intercept="1"/>
    <feFuncB type="linear" slope="-1" intercept="1"/>
    <feFuncA type="linear" slope="1" intercept="0"/>
   </feComponentTransfer>
   <feComponentTransfer>
    <feFuncR type="gamma" amplitude="1" exponent="2.4" offset="0"/>
    <feFuncG type="gamma" amplitude="1" exponent="2.4" offset="0"/>
    <feFuncB type="gamma" amplitude="1" exponent="2.4" offset="0"/>
   </feComponentTransfer>
  </filter>
 </defs>
 <g id="Document" fill="none" stroke="black" font-family="Times New Roman" font-size="16" transform="scale(1 -1)">
  <g id="Spread" transform="translate(0 -637.5)">
   <g id="Stands">
    <path d="M 320.979,540.149 L 320.51,575.539 L 254.416,575.071 L 161.369,516.477 C 153.791,511.705 146.993,504.847 143.088,496.789 L 97.223,402.154 L 63.323,418.954 C 62.364,416.259 58.758,409.756 57.323,404.854 C 54.413,394.913 52.106,384.569 52.15,374.211 L 52.385,320.07 L 52.15,259.368 C 52.104,247.391 56.023,235.319 61.525,224.681 L 114.26,122.727 C 120.185,111.271 129.219,101.03 139.807,93.665 L 204.494,48.665 L 226.503,79.319 C 235.69,72.381 252.61,67.548 266.581,66.897 L 295.666,65.54 L 295.901,43.743 L 437.462,39.524 L 437.489,19.925 C 447.594,19.779 461.489,19.175 473.301,20.581 C 485.889,22.079 499.458,26.769 509.65,31.79 L 499.337,54.759 L 510.353,61.79 L 528.166,36.243 L 658.458,218.3 L 575.509,238.274 L 529.103,173.118 L 475.431,103.743 L 360.822,98.587 L 253.01,101.868 L 181.994,152.727 L 118.479,260.071 L 116.604,374.445 L 173.557,480.383 L 251.838,536.633 L 320.979,540.149 Z" stroke="#f7f8f9" fill="#b2b2b2" stroke-width="1.5" stroke-linejoin="miter" stroke-linecap="round" marker-start="none" marker-end="none" stroke-miterlimit="79.8403193612775"/>
    <path d="M 383.252,577.318 L 384.939,542.63 L 462.752,542.818 L 462.939,578.068 L 383.252,577.318 Z" stroke="#f7f8f9" fill="#b2b2b2" stroke-width="1.5" stroke-linejoin="miter" stroke-linecap="round" marker-start="none" marker-end="none" stroke-miterlimit="79.8403193612775"/>
    <path d="M 466.502,547.88 L 483.051,563.205 L 477.426,570.33 L 480.801,573.705 L 474.895,581.955 L 505.083,608.018 L 663.242,429.309 L 663.842,292.51 L 585.542,291.31 L 581.342,398.709 L 466.502,547.88 Z" stroke="#f7f8f9" fill="#b2b2b2" stroke-width="1.5" stroke-linejoin="miter" stroke-linecap="round" marker-start="none" marker-end="none" stroke-miterlimit="79.8403193612775"/>
    <path d="M 82.917,409.244 C 81.473,404.404 77.144,398.123 75.623,392.104 C 74.036,385.824 73.814,379.231 73.823,372.754 L 73.973,267.005 C 74.123,252.005 76.069,242.864 81.473,232.355 L 130.073,137.855 C 136.075,126.184 144.826,115.387 155.573,107.855 L 216.389,65.233 L 201.025,43.054 C 186.323,53.255 155.455,69.153 135.521,86.019 C 121.344,98.014 108.214,111.616 97.673,126.905 C 82.214,149.327 71.364,174.769 61.373,200.105 C 55.361,215.35 50.279,231.095 47.273,247.205 C 45.277,257.903 45.223,268.884 44.723,279.755 C 44.055,294.29 44.153,308.853 44.123,323.404 C 44.09,339.154 43.33,354.953 44.573,370.654 C 45.239,379.07 46.054,387.572 48.323,395.704 C 50.794,404.561 54.623,413.104 58.954,421.162 L 82.917,409.244 Z" stroke="#f7f8f9" fill="#b2b2b2" stroke-width="1.5" stroke-linejoin="miter" stroke-linecap="round" marker-start="none" marker-end="none" stroke-miterlimit="79.8403193612775"/>
    <path d="M 437.462,39.524 L 437.489,19.925 C 447.594,19.779 461.489,19.175 473.301,20.581 C 485.889,22.079 499.458,26.769 509.65,31.79 L 499.337,54.759 L 510.353,61.79 L 528.166,36.243 L 658.458,218.3 L 626.852,225.911 L 512.462,66.565 L 510.512,67.915 L 500.162,60.415 L 498.662,62.665 L 490.712,59.215 L 491.912,56.59 C 474.685,49.676 460.376,49.423 442.446,49.657 L 442.563,52.235 L 434.477,52.118 L 434.241,39.621 L 437.462,39.524 Z" stroke-width="1.5" stroke="#f7f8f9" fill="#b2b2b2" stroke-linejoin="miter" stroke-linecap="round" marker-start="none" marker-end="none" stroke-miterlimit="79.8403193612775"/>
    <path d="M 292.917,60.349 L 292.338,26.134 L 427.084,23.854 L 427.663,58.069 L 292.917,60.349 Z" stroke="#f7f8f9" fill="#d9d9d9" stroke-width="1.5" stroke-linecap="round" stroke-linejoin="miter" marker-start="none" marker-end="none" stroke-miterlimit="79.8403193612775"/>
    <path d="M 77.697,411.711 L 49.807,425.774 L 41.873,404.554 L 35.979,405.852 L 36.916,411.242 L 15.119,416.867 L 10.523,394.504 L 31.823,390.004 L 33.023,395.254 L 38.873,394.054 L 37.523,386.704 L 5.744,387.336 L 5.51,351.945 L 13.223,351.754 L 13.244,329.914 L 5.123,329.554 L 5.351,304.442 L 13.571,304.442 L 13.511,282.842 L 5.291,282.842 L 5.51,257.493 L 37.271,257.462 C 37.691,253.742 38.471,248.402 39.251,245.342 L 33.4,243.665 L 31.931,249.182 L 9.729,243.899 L 15.822,220.696 L 37.571,227.642 L 36.447,231.946 L 41.135,233.353 C 42.611,228.542 46.031,220.742 47.229,217.649 L 18.166,202.884 L 29.416,181.556 L 36.663,184.99 L 47.163,164.44 L 40.197,160.931 L 51.447,138.665 L 58.188,142.09 L 69.063,121.99 L 62.238,118.165 L 74.65,96.712 L 101.913,111.04 C 103.938,107.665 107.088,103.315 109.104,101.165 L 105.138,97.39 L 101.613,101.215 L 85.432,86.868 L 100.197,69.993 L 116.013,84.79 L 113.238,88.24 L 117.063,91.765 C 120.138,88.765 127.038,82.765 130.713,80.065 L 113.688,54.19 L 129.438,42.415 L 135.513,50.44 L 184.104,16.087 L 188.238,21.64 L 199.788,14.365 L 212.313,31.69 L 199.577,40.828 L 204.494,48.665 L 142.619,91.556 L 151.291,104.446 C 143.873,110.105 131.942,120.486 126.447,131.399 L 76.525,230.54 C 71.981,239.565 67.15,249.264 67.15,259.368 L 67.15,379.836 C 67.15,391.027 73.823,404.404 77.697,411.711 Z" stroke="#f7f8f9" fill="#d9d9d9" stroke-width="1.5" stroke-linejoin="miter" stroke-linecap="round" marker-start="none" marker-end="none" stroke-miterlimit="79.8403193612775"/>
   </g>
   <g id="Pitch">
    <g id="Group" stroke-linejoin="miter" stroke-linecap="round" stroke="none" stroke-width="0.188" stroke-miterlimit="79.8403193612775">
     <path d="M 563.49,425.789 L 563.49,440.89 L 576.982,425.789 L 563.49,425.789 Z" fill="#798970" marker-start="none" marker-end="none"/>
     <path d="M 590.501,398.778 L 590.501,410.659 L 595.822,404.704 L 595.907,398.778 L 590.501,398.778 Z" fill="#798970" marker-start="none" marker-end="none"/>
     <path d="M 590.501,371.767 L 590.501,398.778 L 595.907,398.778 L 596.296,371.767 L 590.501,371.767 Z" fill="#889780" marker-start="none" marker-end="none"/>
     <path d="M 563.491,398.778 L 563.491,425.789 L 576.982,425.789 L 590.502,410.658 L 590.502,398.778 L 563.491,398.778 Z" fill="#6b7b62" marker-start="none" marker-end="none"/>
     <path d="M 563.49,371.767 L 563.49,398.778 L 590.501,398.778 L 590.501,371.767 L 563.49,371.767 Z" fill="#798970" marker-start="none" marker-end="none"/>
     <path d="M 590.501,344.756 L 590.501,371.767 L 596.296,371.767 L 596.685,344.756 L 590.501,344.756 Z" fill="#798970" marker-start="none" marker-end="none"/>
     <path d="M 590.501,317.745 L 590.501,344.756 L 596.685,344.756 L 597.074,317.745 L 590.501,317.745 Z" fill="#889780" marker-start="none" marker-end="none"/>
     <path d="M 563.49,344.756 L 563.49,371.767 L 590.501,371.767 L 590.501,344.756 L 563.49,344.756 Z" fill="#6b7b62" marker-start="none" marker-end="none"/>
     <path d="M 563.491,317.745 L 563.491,344.756 L 590.502,344.756 L 590.502,317.745 L 563.491,317.745 Z" fill="#798970" marker-start="none" marker-end="none"/>
     <path d="M 590.502,290.734 L 590.502,317.745 L 597.074,317.745 L 597.462,290.734 L 590.502,290.734 Z" fill="#798970" marker-start="none" marker-end="none"/>
     <path d="M 590.501,263.723 L 590.501,290.734 L 597.462,290.734 L 597.472,290.105 L 591.368,263.723 L 590.501,263.723 Z" fill="#889780" marker-start="none" marker-end="none"/>
     <path d="M 563.49,290.734 L 563.49,317.745 L 590.501,317.745 L 590.501,290.734 L 563.49,290.734 Z" fill="#6b7b62" marker-start="none" marker-end="none"/>
     <path d="M 563.491,263.723 L 563.491,290.734 L 590.502,290.734 L 590.502,263.723 L 563.491,263.723 Z" fill="#798970" marker-start="none" marker-end="none"/>
     <path d="M 590.501,259.972 L 590.501,263.723 L 591.368,263.723 L 590.501,259.972 Z" fill="#798970" marker-start="none" marker-end="none"/>
     <path d="M 563.491,236.712 L 563.491,263.723 L 590.502,263.723 L 590.502,259.976 L 585.119,236.712 L 563.491,236.712 Z" fill="#6b7b62" marker-start="none" marker-end="none"/>
     <path d="M 563.49,209.701 L 563.49,236.712 L 585.119,236.712 L 583.522,229.805 L 569.061,209.701 L 563.49,209.701 Z" fill="#798970" marker-start="none" marker-end="none"/>
     <path d="M 563.491,201.957 L 563.491,209.701 L 569.061,209.701 L 563.491,201.957 Z" fill="#6b7b62" marker-start="none" marker-end="none"/>
     <path d="M 509.469,479.811 L 509.469,501.351 L 528.715,479.811 L 509.469,479.811 Z" fill="#798970" marker-start="none" marker-end="none"/>
     <path d="M 536.479,452.8 L 536.479,471.121 L 552.848,452.8 L 536.479,452.8 Z" fill="#798970" marker-start="none" marker-end="none"/>
     <path d="M 536.48,425.789 L 536.48,452.8 L 552.848,452.8 L 563.491,440.889 L 563.491,425.789 L 536.48,425.789 Z" fill="#889780" marker-start="none" marker-end="none"/>
     <path d="M 509.468,452.8 L 509.468,479.811 L 528.715,479.811 L 536.479,471.121 L 536.479,452.8 L 509.468,452.8 Z" fill="#6b7b62" marker-start="none" marker-end="none"/>
     <path d="M 509.468,425.789 L 509.468,452.8 L 536.479,452.8 L 536.479,425.789 L 509.468,425.789 Z" fill="#798970" marker-start="none" marker-end="none"/>
     <path d="M 536.479,398.778 L 536.479,425.789 L 563.49,425.789 L 563.49,398.778 L 536.479,398.778 Z" fill="#798970" marker-start="none" marker-end="none"/>
     <path d="M 536.479,371.767 L 536.479,398.778 L 563.49,398.778 L 563.49,371.767 L 536.479,371.767 Z" fill="#889780" marker-start="none" marker-end="none"/>
     <path d="M 509.469,398.778 L 509.469,425.789 L 536.48,425.789 L 536.48,398.778 L 509.469,398.778 Z" fill="#6b7b62" marker-start="none" marker-end="none"/>
     <path d="M 509.468,371.767 L 509.468,398.778 L 536.479,398.778 L 536.479,371.767 L 509.468,371.767 Z" fill="#798970" marker-start="none" marker-end="none"/>
     <path d="M 536.479,344.756 L 536.479,371.767 L 563.49,371.767 L 563.49,344.756 L 536.479,344.756 Z" fill="#798970" marker-start="none" marker-end="none"/>
     <path d="M 536.48,317.745 L 536.48,344.756 L 563.491,344.756 L 563.491,317.745 L 536.48,317.745 Z" fill="#889780" marker-start="none" marker-end="none"/>
     <path d="M 509.468,344.756 L 509.468,371.767 L 536.479,371.767 L 536.479,344.756 L 509.468,344.756 Z" fill="#6b7b62" marker-start="none" marker-end="none"/>
     <path d="M 509.469,317.745 L 509.469,344.756 L 536.48,344.756 L 536.48,317.745 L 509.469,317.745 Z" fill="#798970" marker-start="none" marker-end="none"/>
     <path d="M 536.479,290.734 L 536.479,317.745 L 563.49,317.745 L 563.49,290.734 L 536.479,290.734 Z" fill="#798970" marker-start="none" marker-end="none"/>
     <path d="M 536.479,263.723 L 536.479,290.734 L 563.49,290.734 L 563.49,263.723 L 536.479,263.723 Z" fill="#889780" marker-start="none" marker-end="none"/>
     <path d="M 509.468,290.734 L 509.468,317.745 L 536.479,317.745 L 536.479,290.734 L 509.468,290.734 Z" fill="#6b7b62" marker-start="none" marker-end="none"/>
     <path d="M 509.469,263.723 L 509.469,290.734 L 536.48,290.734 L 536.48,263.723 L 509.469,263.723 Z" fill="#798970" marker-start="none" marker-end="none"/>
     <path d="M 536.479,236.712 L 536.479,263.723 L 563.49,263.723 L 563.49,236.712 L 536.479,236.712 Z" fill="#798970" marker-start="none" marker-end="none"/>
     <path d="M 536.479,209.701 L 536.479,236.712 L 563.49,236.712 L 563.49,209.701 L 536.479,209.701 Z" fill="#889780" marker-start="none" marker-end="none"/>
     <path d="M 509.468,236.712 L 509.468,263.723 L 536.479,263.723 L 536.479,236.712 L 509.468,236.712 Z" fill="#6b7b62" marker-start="none" marker-end="none"/>
     <path d="M 509.468,209.701 L 509.468,236.712 L 536.479,236.712 L 536.479,209.701 L 509.468,209.701 Z" fill="#798970" marker-start="none" marker-end="none"/>
     <path d="M 536.48,182.69 L 536.48,209.701 L 563.491,209.701 L 563.491,201.957 L 549.632,182.69 L 536.48,182.69 Z" fill="#798970" marker-start="none" marker-end="none"/>
     <path d="M 536.479,164.403 L 536.479,182.69 L 549.632,182.69 L 536.479,164.403 Z" fill="#889780" marker-start="none" marker-end="none"/>
     <path d="M 509.469,182.69 L 509.469,209.701 L 536.48,209.701 L 536.48,182.69 L 509.469,182.69 Z" fill="#6b7b62" marker-start="none" marker-end="none"/>
     <path d="M 509.468,155.679 L 509.468,182.69 L 536.479,182.69 L 536.479,164.403 L 530.203,155.679 L 509.468,155.679 Z" fill="#798970" marker-start="none" marker-end="none"/>
     <path d="M 509.469,128.668 L 509.469,155.679 L 530.203,155.679 L 510.774,128.668 L 509.469,128.668 Z" fill="#6b7b62" marker-start="none" marker-end="none"/>
     <path d="M 509.468,126.851 L 509.468,128.668 L 510.774,128.668 L 509.468,126.851 Z" fill="#798970" marker-start="none" marker-end="none"/>
     <path d="M 455.447,533.833 L 455.447,549.582 L 466.222,549.754 L 480.447,533.833 L 455.447,533.833 Z" fill="#798970" marker-start="none" marker-end="none"/>
     <path d="M 482.457,506.822 L 482.457,531.583 L 504.581,506.822 L 482.457,506.822 Z" fill="#798970" marker-start="none" marker-end="none"/>
     <path d="M 482.458,479.811 L 482.458,506.822 L 504.581,506.822 L 509.469,501.351 L 509.469,479.811 L 482.458,479.811 Z" fill="#889780" marker-start="none" marker-end="none"/>
     <path d="M 455.446,506.822 L 455.446,533.833 L 480.447,533.833 L 482.457,531.583 L 482.457,506.822 L 455.446,506.822 Z" fill="#6b7b62" marker-start="none" marker-end="none"/>
     <path d="M 455.446,479.811 L 455.446,506.822 L 482.457,506.822 L 482.457,479.811 L 455.446,479.811 Z" fill="#798970" marker-start="none" marker-end="none"/>
     <path d="M 482.458,452.8 L 482.458,479.811 L 509.469,479.811 L 509.469,452.8 L 482.458,452.8 Z" fill="#798970" marker-start="none" marker-end="none"/>
     <path d="M 482.457,425.789 L 482.457,452.8 L 509.468,452.8 L 509.468,425.789 L 482.457,425.789 Z" fill="#889780" marker-start="none" marker-end="none"/>
     <path d="M 455.446,452.8 L 455.446,479.811 L 482.457,479.811 L 482.457,452.8 L 455.446,452.8 Z" fill="#6b7b62" marker-start="none" marker-end="none"/>
     <path d="M 455.447,425.789 L 455.447,452.8 L 482.458,452.8 L 482.458,425.789 L 455.447,425.789 Z" fill="#798970" marker-start="none" marker-end="none"/>
     <path d="M 482.458,398.778 L 482.458,425.789 L 509.469,425.789 L 509.469,398.778 L 482.458,398.778 Z" fill="#798970" marker-start="none" marker-end="none"/>
     <path d="M 482.457,371.767 L 482.457,398.778 L 509.468,398.778 L 509.468,371.767 L 482.457,371.767 Z" fill="#889780" marker-start="none" marker-end="none"/>
     <path d="M 455.447,398.778 L 455.447,425.789 L 482.458,425.789 L 482.458,398.778 L 455.447,398.778 Z" fill="#6b7b62" marker-start="none" marker-end="none"/>
     <path d="M 455.446,371.767 L 455.446,398.778 L 482.457,398.778 L 482.457,371.767 L 455.446,371.767 Z" fill="#798970" marker-start="none" marker-end="none"/>
     <path d="M 482.458,344.756 L 482.458,371.767 L 509.469,371.767 L 509.469,344.756 L 482.458,344.756 Z" fill="#798970" marker-start="none" marker-end="none"/>
     <path d="M 482.458,317.745 L 482.458,344.756 L 509.469,344.756 L 509.469,317.745 L 482.458,317.745 Z" fill="#889780" marker-start="none" marker-end="none"/>
     <path d="M 455.447,344.756 L 455.447,371.767 L 482.458,371.767 L 482.458,344.756 L 455.447,344.756 Z" fill="#6b7b62" marker-start="none" marker-end="none"/>
     <path d="M 455.446,317.745 L 455.446,344.756 L 482.457,344.756 L 482.457,317.745 L 455.446,317.745 Z" fill="#798970" marker-start="none" marker-end="none"/>
     <path d="M 482.457,290.734 L 482.457,317.745 L 509.468,317.745 L 509.468,290.734 L 482.457,290.734 Z" fill="#798970" marker-start="none" marker-end="none"/>
     <path d="M 482.458,263.723 L 482.458,290.734 L 509.469,290.734 L 509.469,263.723 L 482.458,263.723 Z" fill="#889780" marker-start="none" marker-end="none"/>
     <path d="M 455.446,290.734 L 455.446,317.745 L 482.457,317.745 L 482.457,290.734 L 455.446,290.734 Z" fill="#6b7b62" marker-start="none" marker-end="none"/>
     <path d="M 455.447,263.723 L 455.447,290.734 L 482.458,290.734 L 482.458,263.723 L 455.447,263.723 Z" fill="#798970" marker-start="none" marker-end="none"/>
     <path d="M 482.457,236.712 L 482.457,263.723 L 509.468,263.723 L 509.468,236.712 L 482.457,236.712 Z" fill="#798970" marker-start="none" marker-end="none"/>
     <path d="M 482.458,209.701 L 482.458,236.712 L 509.469,236.712 L 509.469,209.701 L 482.458,209.701 Z" fill="#889780" marker-start="none" marker-end="none"/>
     <path d="M 455.446,236.712 L 455.446,263.723 L 482.457,263.723 L 482.457,236.712 L 455.446,236.712 Z" fill="#6b7b62" marker-start="none" marker-end="none"/>
     <path d="M 455.447,209.701 L 455.447,236.712 L 482.458,236.712 L 482.458,209.701 L 455.447,209.701 Z" fill="#798970" marker-start="none" marker-end="none"/>
     <path d="M 482.458,182.69 L 482.458,209.701 L 509.469,209.701 L 509.469,182.69 L 482.458,182.69 Z" fill="#798970" marker-start="none" marker-end="none"/>
     <path d="M 482.458,155.679 L 482.458,182.69 L 509.469,182.69 L 509.469,155.679 L 482.458,155.679 Z" fill="#889780" marker-start="none" marker-end="none"/>
     <path d="M 455.447,182.69 L 455.447,209.701 L 482.458,209.701 L 482.458,182.69 L 455.447,182.69 Z" fill="#6b7b62" marker-start="none" marker-end="none"/>
     <path d="M 455.446,155.679 L 455.446,182.69 L 482.457,182.69 L 482.457,155.679 L 455.446,155.679 Z" fill="#798970" marker-start="none" marker-end="none"/>
     <path d="M 482.458,128.668 L 482.458,155.679 L 509.469,155.679 L 509.469,128.668 L 482.458,128.668 Z" fill="#798970" marker-start="none" marker-end="none"/>
     <path d="M 482.458,101.657 L 482.458,128.668 L 509.469,128.668 L 509.469,126.853 L 491.345,101.657 L 482.458,101.657 Z" fill="#889780" marker-start="none" marker-end="none"/>
     <path d="M 455.447,128.668 L 455.447,155.679 L 482.458,155.679 L 482.458,128.668 L 455.447,128.668 Z" fill="#6b7b62" marker-start="none" marker-end="none"/>
     <path d="M 455.446,101.657 L 455.446,128.668 L 482.457,128.668 L 482.457,101.657 L 455.446,101.657 Z" fill="#798970" marker-start="none" marker-end="none"/>
     <path d="M 482.458,92.086 L 482.458,101.657 L 491.345,101.657 L 491.272,101.555 C 488.855,98.194 485.851,94.894 482.458,92.086 Z" fill="#798970" marker-start="none" marker-end="none"/>
     <path d="M 455.447,84.088 L 455.447,101.657 L 482.458,101.657 L 482.458,92.086 C 476.901,87.487 470.3,84.21 463.522,84.155 L 455.447,84.088 Z" fill="#6b7b62" marker-start="none" marker-end="none"/>
     <path d="M 428.436,533.833 L 428.436,549.15 L 455.447,549.582 L 455.447,533.833 L 428.436,533.833 Z" fill="#889780" marker-start="none" marker-end="none"/>
     <path d="M 401.424,533.833 L 401.424,548.719 L 428.435,549.15 L 428.435,533.833 L 401.424,533.833 Z" fill="#798970" marker-start="none" marker-end="none"/>
     <path d="M 428.435,506.822 L 428.435,533.833 L 455.446,533.833 L 455.446,506.822 L 428.435,506.822 Z" fill="#798970" marker-start="none" marker-end="none"/>
     <path d="M 428.436,479.811 L 428.436,506.822 L 455.447,506.822 L 455.447,479.811 L 428.436,479.811 Z" fill="#889780" marker-start="none" marker-end="none"/>
     <path d="M 401.425,506.822 L 401.425,533.833 L 428.436,533.833 L 428.436,506.822 L 401.425,506.822 Z" fill="#6b7b62" marker-start="none" marker-end="none"/>
     <path d="M 401.424,479.811 L 401.424,506.822 L 428.435,506.822 L 428.435,479.811 L 401.424,479.811 Z" fill="#798970" marker-start="none" marker-end="none"/>
     <path d="M 428.436,452.8 L 428.436,479.811 L 455.447,479.811 L 455.447,452.8 L 428.436,452.8 Z" fill="#798970" marker-start="none" marker-end="none"/>
     <path d="M 428.436,425.789 L 428.436,452.8 L 455.447,452.8 L 455.447,425.789 L 428.436,425.789 Z" fill="#889780" marker-start="none" marker-end="none"/>
     <path d="M 401.425,452.8 L 401.425,479.811 L 428.436,479.811 L 428.436,452.8 L 401.425,452.8 Z" fill="#6b7b62" marker-start="none" marker-end="none"/>
     <path d="M 401.425,425.789 L 401.425,452.8 L 428.436,452.8 L 428.436,425.789 L 401.425,425.789 Z" fill="#798970" marker-start="none" marker-end="none"/>
     <path d="M 428.436,398.778 L 428.436,425.789 L 455.447,425.789 L 455.447,398.778 L 428.436,398.778 Z" fill="#798970" marker-start="none" marker-end="none"/>
     <path d="M 428.435,371.767 L 428.435,398.778 L 455.446,398.778 L 455.446,371.767 L 428.435,371.767 Z" fill="#889780" marker-start="none" marker-end="none"/>
     <path d="M 401.424,398.778 L 401.424,425.789 L 428.435,425.789 L 428.435,398.778 L 401.424,398.778 Z" fill="#6b7b62" marker-start="none" marker-end="none"/>
     <path d="M 401.424,371.767 L 401.424,398.778 L 428.435,398.778 L 428.435,371.767 L 401.424,371.767 Z" fill="#798970" marker-start="none" marker-end="none"/>
     <path d="M 428.436,344.756 L 428.436,371.767 L 455.447,371.767 L 455.447,344.756 L 428.436,344.756 Z" fill="#798970" marker-start="none" marker-end="none"/>
     <path d="M 428.436,317.745 L 428.436,344.756 L 455.447,344.756 L 455.447,317.745 L 428.436,317.745 Z" fill="#889780" marker-start="none" marker-end="none"/>
     <path d="M 401.424,344.756 L 401.424,371.767 L 428.435,371.767 L 428.435,344.756 L 401.424,344.756 Z" fill="#6b7b62" marker-start="none" marker-end="none"/>
     <path d="M 401.425,317.745 L 401.425,344.756 L 428.436,344.756 L 428.436,317.745 L 401.425,317.745 Z" fill="#798970" marker-start="none" marker-end="none"/>
     <path d="M 428.436,290.734 L 428.436,317.745 L 455.447,317.745 L 455.447,290.734 L 428.436,290.734 Z" fill="#798970" marker-start="none" marker-end="none"/>
     <path d="M 428.436,263.723 L 428.436,290.734 L 455.447,290.734 L 455.447,263.723 L 428.436,263.723 Z" fill="#889780" marker-start="none" marker-end="none"/>
     <path d="M 401.424,290.734 L 401.424,317.745 L 428.435,317.745 L 428.435,290.734 L 401.424,290.734 Z" fill="#6b7b62" marker-start="none" marker-end="none"/>
     <path d="M 401.425,263.723 L 401.425,290.734 L 428.436,290.734 L 428.436,263.723 L 401.425,263.723 Z" fill="#798970" marker-start="none" marker-end="none"/>
     <path d="M 428.436,236.712 L 428.436,263.723 L 455.447,263.723 L 455.447,236.712 L 428.436,236.712 Z" fill="#798970" marker-start="none" marker-end="none"/>
     <path d="M 428.436,209.701 L 428.436,236.712 L 455.447,236.712 L 455.447,209.701 L 428.436,209.701 Z" fill="#889780" marker-start="none" marker-end="none"/>
     <path d="M 401.424,236.712 L 401.424,263.723 L 428.435,263.723 L 428.435,236.712 L 401.424,236.712 Z" fill="#6b7b62" marker-start="none" marker-end="none"/>
     <path d="M 401.425,209.701 L 401.425,236.712 L 428.436,236.712 L 428.436,209.701 L 401.425,209.701 Z" fill="#798970" marker-start="none" marker-end="none"/>
     <path d="M 428.436,182.69 L 428.436,209.701 L 455.447,209.701 L 455.447,182.69 L 428.436,182.69 Z" fill="#798970" marker-start="none" marker-end="none"/>
     <path d="M 428.436,155.679 L 428.436,182.69 L 455.447,182.69 L 455.447,155.679 L 428.436,155.679 Z" fill="#889780" marker-start="none" marker-end="none"/>
     <path d="M 401.425,182.69 L 401.425,209.701 L 428.436,209.701 L 428.436,182.69 L 401.425,182.69 Z" fill="#6b7b62" marker-start="none" marker-end="none"/>
     <path d="M 401.424,155.679 L 401.424,182.69 L 428.435,182.69 L 428.435,155.679 L 401.424,155.679 Z" fill="#798970" marker-start="none" marker-end="none"/>
     <path d="M 428.435,128.668 L 428.435,155.679 L 455.446,155.679 L 455.446,128.668 L 428.435,128.668 Z" fill="#798970" marker-start="none" marker-end="none"/>
     <path d="M 428.436,101.657 L 428.436,128.668 L 455.447,128.668 L 455.447,101.657 L 428.436,101.657 Z" fill="#889780" marker-start="none" marker-end="none"/>
     <path d="M 401.424,128.668 L 401.424,155.679 L 428.435,155.679 L 428.435,128.668 L 401.424,128.668 Z" fill="#6b7b62" marker-start="none" marker-end="none"/>
     <path d="M 401.424,101.657 L 401.424,128.668 L 428.435,128.668 L 428.435,101.657 L 401.424,101.657 Z" fill="#798970" marker-start="none" marker-end="none"/>
     <path d="M 445.222,84.005 L 428.435,84.275 L 428.436,101.657 L 455.447,101.657 L 455.447,84.088 L 445.222,84.005 Z" fill="#798970" marker-start="none" marker-end="none"/>
     <path d="M 428.435,84.275 L 401.424,84.71 L 401.425,101.657 L 428.436,101.657 L 428.435,84.275 Z" fill="#6b7b62" marker-start="none" marker-end="none"/>
     <path d="M 374.414,533.833 L 374.414,548.288 L 401.425,548.719 L 401.425,533.833 L 374.414,533.833 Z" fill="#889780" marker-start="none" marker-end="none"/>
     <path d="M 347.403,533.833 L 347.403,547.857 L 374.414,548.288 L 374.414,533.833 L 347.403,533.833 Z" fill="#798970" marker-start="none" marker-end="none"/>
     <path d="M 374.414,506.822 L 374.414,533.833 L 401.425,533.833 L 401.425,506.822 L 374.414,506.822 Z" fill="#798970" marker-start="none" marker-end="none"/>
     <path d="M 374.413,479.811 L 374.413,506.822 L 401.424,506.822 L 401.424,479.811 L 374.413,479.811 Z" fill="#889780" marker-start="none" marker-end="none"/>
     <path d="M 347.402,506.822 L 347.402,533.833 L 374.413,533.833 L 374.413,506.822 L 347.402,506.822 Z" fill="#6b7b62" marker-start="none" marker-end="none"/>
     <path d="M 347.402,479.811 L 347.402,506.822 L 374.413,506.822 L 374.413,479.811 L 347.402,479.811 Z" fill="#798970" marker-start="none" marker-end="none"/>
     <path d="M 374.414,452.799 L 374.414,479.81 L 401.425,479.81 L 401.425,452.799 L 374.414,452.799 Z" fill="#798970" marker-start="none" marker-end="none"/>
     <path d="M 374.414,425.789 L 374.414,452.8 L 401.425,452.8 L 401.425,425.789 L 374.414,425.789 Z" fill="#889780" marker-start="none" marker-end="none"/>
     <path d="M 347.402,452.799 L 347.402,479.81 L 374.413,479.81 L 374.413,452.799 L 347.402,452.799 Z" fill="#6b7b62" marker-start="none" marker-end="none"/>
     <path d="M 347.403,425.789 L 347.403,452.8 L 374.414,452.8 L 374.414,425.789 L 347.403,425.789 Z" fill="#798970" marker-start="none" marker-end="none"/>
     <path d="M 374.414,398.778 L 374.414,425.789 L 401.425,425.789 L 401.425,398.778 L 374.414,398.778 Z" fill="#798970" marker-start="none" marker-end="none"/>
     <path d="M 374.413,371.767 L 374.413,398.778 L 401.424,398.778 L 401.424,371.767 L 374.413,371.767 Z" fill="#889780" marker-start="none" marker-end="none"/>
     <path d="M 347.403,398.778 L 347.403,425.789 L 374.414,425.789 L 374.414,398.778 L 347.403,398.778 Z" fill="#6b7b62" marker-start="none" marker-end="none"/>
     <path d="M 347.402,371.767 L 347.402,398.778 L 374.413,398.778 L 374.413,371.767 L 347.402,371.767 Z" fill="#798970" marker-start="none" marker-end="none"/>
     <path d="M 374.414,344.755 L 374.414,371.766 L 401.425,371.766 L 401.425,344.755 L 374.414,344.755 Z" fill="#798970" marker-start="none" marker-end="none"/>
     <path d="M 374.414,317.745 L 374.414,344.756 L 401.425,344.756 L 401.425,317.745 L 374.414,317.745 Z" fill="#889780" marker-start="none" marker-end="none"/>
     <path d="M 347.402,344.755 L 347.402,371.766 L 374.413,371.766 L 374.413,344.755 L 347.402,344.755 Z" fill="#6b7b62" marker-start="none" marker-end="none"/>
     <path d="M 347.403,317.745 L 347.403,344.756 L 374.414,344.756 L 374.414,317.745 L 347.403,317.745 Z" fill="#798970" marker-start="none" marker-end="none"/>
     <path d="M 374.413,290.734 L 374.413,317.745 L 401.424,317.745 L 401.424,290.734 L 374.413,290.734 Z" fill="#798970" marker-start="none" marker-end="none"/>
     <path d="M 374.414,263.723 L 374.414,290.734 L 401.425,290.734 L 401.425,263.723 L 374.414,263.723 Z" fill="#889780" marker-start="none" marker-end="none"/>
     <path d="M 347.402,290.734 L 347.402,317.745 L 374.413,317.745 L 374.413,290.734 L 347.402,290.734 Z" fill="#6b7b62" marker-start="none" marker-end="none"/>
     <path d="M 347.402,263.723 L 347.402,290.734 L 374.413,290.734 L 374.413,263.723 L 347.402,263.723 Z" fill="#798970" marker-start="none" marker-end="none"/>
     <path d="M 374.414,236.712 L 374.414,263.723 L 401.425,263.723 L 401.425,236.712 L 374.414,236.712 Z" fill="#798970" marker-start="none" marker-end="none"/>
     <path d="M 374.414,209.701 L 374.414,236.712 L 401.425,236.712 L 401.425,209.701 L 374.414,209.701 Z" fill="#889780" marker-start="none" marker-end="none"/>
     <path d="M 347.403,236.712 L 347.403,263.723 L 374.414,263.723 L 374.414,236.712 L 347.403,236.712 Z" fill="#6b7b62" marker-start="none" marker-end="none"/>
     <path d="M 347.402,209.701 L 347.402,236.712 L 374.413,236.712 L 374.413,209.701 L 347.402,209.701 Z" fill="#798970" marker-start="none" marker-end="none"/>
     <path d="M 374.414,182.69 L 374.414,209.701 L 401.425,209.701 L 401.425,182.69 L 374.414,182.69 Z" fill="#798970" marker-start="none" marker-end="none"/>
     <path d="M 374.413,155.679 L 374.413,182.69 L 401.424,182.69 L 401.424,155.679 L 374.413,155.679 Z" fill="#889780" marker-start="none" marker-end="none"/>
     <path d="M 347.403,182.69 L 347.403,209.701 L 374.414,209.701 L 374.414,182.69 L 347.403,182.69 Z" fill="#6b7b62" marker-start="none" marker-end="none"/>
     <path d="M 347.403,155.678 L 347.403,182.689 L 374.414,182.689 L 374.414,155.678 L 347.403,155.678 Z" fill="#798970" marker-start="none" marker-end="none"/>
     <path d="M 374.414,128.668 L 374.414,155.679 L 401.425,155.679 L 401.425,128.668 L 374.414,128.668 Z" fill="#798970" marker-start="none" marker-end="none"/>
     <path d="M 374.414,101.657 L 374.414,128.668 L 401.425,128.668 L 401.425,101.657 L 374.414,101.657 Z" fill="#889780" marker-start="none" marker-end="none"/>
     <path d="M 347.402,128.668 L 347.402,155.679 L 374.413,155.679 L 374.413,128.668 L 347.402,128.668 Z" fill="#6b7b62" marker-start="none" marker-end="none"/>
     <path d="M 347.403,101.657 L 347.403,128.668 L 374.414,128.668 L 374.414,101.657 L 347.403,101.657 Z" fill="#798970" marker-start="none" marker-end="none"/>
     <path d="M 401.423,84.71 L 374.412,85.145 L 374.413,101.657 L 401.424,101.657 L 401.423,84.71 Z" fill="#798970" marker-start="none" marker-end="none"/>
     <path d="M 374.412,85.145 L 347.401,85.58 L 347.402,101.657 L 374.413,101.657 L 374.412,85.145 Z" fill="#6b7b62" marker-start="none" marker-end="none"/>
     <path d="M 320.392,533.833 L 320.392,547.426 L 347.403,547.857 L 347.403,533.833 L 320.392,533.833 Z" fill="#889780" marker-start="none" marker-end="none"/>
     <path d="M 293.381,533.833 L 293.381,546.995 L 320.392,547.426 L 320.392,533.833 L 293.381,533.833 Z" fill="#798970" marker-start="none" marker-end="none"/>
     <path d="M 320.392,506.822 L 320.392,533.833 L 347.403,533.833 L 347.403,506.822 L 320.392,506.822 Z" fill="#798970" marker-start="none" marker-end="none"/>
     <path d="M 320.392,479.811 L 320.392,506.822 L 347.403,506.822 L 347.403,479.811 L 320.392,479.811 Z" fill="#889780" marker-start="none" marker-end="none"/>
     <path d="M 293.38,506.822 L 293.38,533.833 L 320.391,533.833 L 320.391,506.822 L 293.38,506.822 Z" fill="#6b7b62" marker-start="none" marker-end="none"/>
     <path d="M 293.38,479.811 L 293.38,506.822 L 320.391,506.822 L 320.391,479.811 L 293.38,479.811 Z" fill="#798970" marker-start="none" marker-end="none"/>
     <path d="M 320.391,452.8 L 320.391,479.811 L 347.402,479.811 L 347.402,452.8 L 320.391,452.8 Z" fill="#798970" marker-start="none" marker-end="none"/>
     <path d="M 320.391,425.789 L 320.391,452.8 L 347.402,452.8 L 347.402,425.789 L 320.391,425.789 Z" fill="#889780" marker-start="none" marker-end="none"/>
     <path d="M 293.38,452.8 L 293.38,479.811 L 320.391,479.811 L 320.391,452.8 L 293.38,452.8 Z" fill="#6b7b62" marker-start="none" marker-end="none"/>
     <path d="M 293.38,425.789 L 293.38,452.8 L 320.391,452.8 L 320.391,425.789 L 293.38,425.789 Z" fill="#798970" marker-start="none" marker-end="none"/>
     <path d="M 320.392,398.778 L 320.392,425.789 L 347.403,425.789 L 347.403,398.778 L 320.392,398.778 Z" fill="#798970" marker-start="none" marker-end="none"/>
     <path d="M 320.392,371.767 L 320.392,398.778 L 347.403,398.778 L 347.403,371.767 L 320.392,371.767 Z" fill="#889780" marker-start="none" marker-end="none"/>
     <path d="M 293.38,398.778 L 293.38,425.789 L 320.391,425.789 L 320.391,398.778 L 293.38,398.778 Z" fill="#6b7b62" marker-start="none" marker-end="none"/>
     <path d="M 293.38,371.767 L 293.38,398.778 L 320.391,398.778 L 320.391,371.767 L 293.38,371.767 Z" fill="#798970" marker-start="none" marker-end="none"/>
     <path d="M 320.392,344.756 L 320.392,371.767 L 347.403,371.767 L 347.403,344.756 L 320.392,344.756 Z" fill="#798970" marker-start="none" marker-end="none"/>
     <path d="M 320.392,317.745 L 320.392,344.756 L 347.403,344.756 L 347.403,317.745 L 320.392,317.745 Z" fill="#889780" marker-start="none" marker-end="none"/>
     <path d="M 293.38,344.756 L 293.38,371.767 L 320.391,371.767 L 320.391,344.756 L 293.38,344.756 Z" fill="#6b7b62" marker-start="none" marker-end="none"/>
     <path d="M 293.381,317.745 L 293.381,344.756 L 320.392,344.756 L 320.392,317.745 L 293.381,317.745 Z" fill="#798970" marker-start="none" marker-end="none"/>
     <path d="M 320.392,290.734 L 320.392,317.745 L 347.403,317.745 L 347.403,290.734 L 320.392,290.734 Z" fill="#798970" marker-start="none" marker-end="none"/>
     <path d="M 320.392,263.723 L 320.392,290.734 L 347.403,290.734 L 347.403,263.723 L 320.392,263.723 Z" fill="#889780" marker-start="none" marker-end="none"/>
     <path d="M 293.38,290.734 L 293.38,317.745 L 320.391,317.745 L 320.391,290.734 L 293.38,290.734 Z" fill="#6b7b62" marker-start="none" marker-end="none"/>
     <path d="M 293.38,263.723 L 293.38,290.734 L 320.391,290.734 L 320.391,263.723 L 293.38,263.723 Z" fill="#798970" marker-start="none" marker-end="none"/>
     <path d="M 320.391,236.712 L 320.391,263.723 L 347.402,263.723 L 347.402,236.712 L 320.391,236.712 Z" fill="#798970" marker-start="none" marker-end="none"/>
     <path d="M 320.392,209.701 L 320.392,236.712 L 347.403,236.712 L 347.403,209.701 L 320.392,209.701 Z" fill="#889780" marker-start="none" marker-end="none"/>
     <path d="M 293.38,236.712 L 293.38,263.723 L 320.391,263.723 L 320.391,236.712 L 293.38,236.712 Z" fill="#6b7b62" marker-start="none" marker-end="none"/>
     <path d="M 293.381,209.701 L 293.381,236.712 L 320.392,236.712 L 320.392,209.701 L 293.381,209.701 Z" fill="#798970" marker-start="none" marker-end="none"/>
     <path d="M 320.392,182.69 L 320.392,209.701 L 347.403,209.701 L 347.403,182.69 L 320.392,182.69 Z" fill="#798970" marker-start="none" marker-end="none"/>
     <path d="M 320.392,155.679 L 320.392,182.69 L 347.403,182.69 L 347.403,155.679 L 320.392,155.679 Z" fill="#889780" marker-start="none" marker-end="none"/>
     <path d="M 293.381,182.69 L 293.381,209.701 L 320.392,209.701 L 320.392,182.69 L 293.381,182.69 Z" fill="#6b7b62" marker-start="none" marker-end="none"/>
     <path d="M 293.38,155.679 L 293.38,182.69 L 320.391,182.69 L 320.391,155.679 L 293.38,155.679 Z" fill="#798970" marker-start="none" marker-end="none"/>
     <path d="M 320.392,128.668 L 320.392,155.679 L 347.403,155.679 L 347.403,128.668 L 320.392,128.668 Z" fill="#798970" marker-start="none" marker-end="none"/>
     <path d="M 320.392,101.657 L 320.392,128.668 L 347.403,128.668 L 347.403,101.657 L 320.392,101.657 Z" fill="#889780" marker-start="none" marker-end="none"/>
     <path d="M 293.381,128.668 L 293.381,155.679 L 320.392,155.679 L 320.392,128.668 L 293.381,128.668 Z" fill="#6b7b62" marker-start="none" marker-end="none"/>
     <path d="M 293.38,101.657 L 293.38,128.668 L 320.391,128.668 L 320.391,101.657 L 293.38,101.657 Z" fill="#798970" marker-start="none" marker-end="none"/>
     <path d="M 347.402,85.58 L 320.391,86.015 L 320.392,101.657 L 347.403,101.657 L 347.402,85.58 Z" fill="#798970" marker-start="none" marker-end="none"/>
     <path d="M 320.39,86.015 L 293.379,86.45 L 293.38,101.657 L 320.391,101.657 L 320.39,86.015 Z" fill="#6b7b62" marker-start="none" marker-end="none"/>
     <path d="M 266.37,533.833 L 266.37,546.564 L 293.381,546.995 L 293.381,533.833 L 266.37,533.833 Z" fill="#889780" marker-start="none" marker-end="none"/>
     <path d="M 239.358,533.833 L 239.358,538.848 L 250.073,546.304 L 266.369,546.564 L 266.369,533.833 L 239.358,533.833 Z" fill="#798970" marker-start="none" marker-end="none"/>
     <path d="M 266.369,506.822 L 266.369,533.833 L 293.38,533.833 L 293.38,506.822 L 266.369,506.822 Z" fill="#798970" marker-start="none" marker-end="none"/>
     <path d="M 266.37,479.811 L 266.37,506.822 L 293.381,506.822 L 293.381,479.811 L 266.37,479.811 Z" fill="#889780" marker-start="none" marker-end="none"/>
     <path d="M 239.358,506.822 L 239.358,533.833 L 266.369,533.833 L 266.369,506.822 L 239.358,506.822 Z" fill="#6b7b62" marker-start="none" marker-end="none"/>
     <path d="M 239.359,479.811 L 239.359,506.822 L 266.37,506.822 L 266.37,479.811 L 239.359,479.811 Z" fill="#798970" marker-start="none" marker-end="none"/>
     <path d="M 266.37,452.8 L 266.37,479.811 L 293.381,479.811 L 293.381,452.8 L 266.37,452.8 Z" fill="#798970" marker-start="none" marker-end="none"/>
     <path d="M 266.369,425.789 L 266.369,452.8 L 293.38,452.8 L 293.38,425.789 L 266.369,425.789 Z" fill="#889780" marker-start="none" marker-end="none"/>
     <path d="M 239.358,452.8 L 239.358,479.811 L 266.369,479.811 L 266.369,452.8 L 239.358,452.8 Z" fill="#6b7b62" marker-start="none" marker-end="none"/>
     <path d="M 239.358,425.789 L 239.358,452.8 L 266.369,452.8 L 266.369,425.789 L 239.358,425.789 Z" fill="#798970" marker-start="none" marker-end="none"/>
     <path d="M 266.37,398.778 L 266.37,425.789 L 293.381,425.789 L 293.381,398.778 L 266.37,398.778 Z" fill="#798970" marker-start="none" marker-end="none"/>
     <path d="M 266.369,371.767 L 266.369,398.778 L 293.38,398.778 L 293.38,371.767 L 266.369,371.767 Z" fill="#889780" marker-start="none" marker-end="none"/>
     <path d="M 239.358,398.778 L 239.358,425.789 L 266.369,425.789 L 266.369,398.778 L 239.358,398.778 Z" fill="#6b7b62" marker-start="none" marker-end="none"/>
     <path d="M 239.358,371.767 L 239.358,398.778 L 266.369,398.778 L 266.369,371.767 L 239.358,371.767 Z" fill="#798970" marker-start="none" marker-end="none"/>
     <path d="M 266.37,344.756 L 266.37,371.767 L 293.381,371.767 L 293.381,344.756 L 266.37,344.756 Z" fill="#798970" marker-start="none" marker-end="none"/>
     <path d="M 266.37,317.745 L 266.37,344.756 L 293.381,344.756 L 293.381,317.745 L 266.37,317.745 Z" fill="#889780" marker-start="none" marker-end="none"/>
     <path d="M 239.358,344.756 L 239.358,371.767 L 266.369,371.767 L 266.369,344.756 L 239.358,344.756 Z" fill="#6b7b62" marker-start="none" marker-end="none"/>
     <path d="M 239.358,317.745 L 239.358,344.756 L 266.369,344.756 L 266.369,317.745 L 239.358,317.745 Z" fill="#798970" marker-start="none" marker-end="none"/>
     <path d="M 266.37,290.734 L 266.37,317.745 L 293.381,317.745 L 293.381,290.734 L 266.37,290.734 Z" fill="#798970" marker-start="none" marker-end="none"/>
     <path d="M 266.37,263.723 L 266.37,290.734 L 293.381,290.734 L 293.381,263.723 L 266.37,263.723 Z" fill="#889780" marker-start="none" marker-end="none"/>
     <path d="M 239.358,290.734 L 239.358,317.745 L 266.369,317.745 L 266.369,290.734 L 239.358,290.734 Z" fill="#6b7b62" marker-start="none" marker-end="none"/>
     <path d="M 239.359,263.723 L 239.359,290.734 L 266.37,290.734 L 266.37,263.723 L 239.359,263.723 Z" fill="#798970" marker-start="none" marker-end="none"/>
     <path d="M 266.37,236.712 L 266.37,263.723 L 293.381,263.723 L 293.381,236.712 L 266.37,236.712 Z" fill="#798970" marker-start="none" marker-end="none"/>
     <path d="M 266.37,209.701 L 266.37,236.712 L 293.381,236.712 L 293.381,209.701 L 266.37,209.701 Z" fill="#889780" marker-start="none" marker-end="none"/>
     <path d="M 239.358,236.712 L 239.358,263.723 L 266.369,263.723 L 266.369,236.712 L 239.358,236.712 Z" fill="#6b7b62" marker-start="none" marker-end="none"/>
     <path d="M 239.358,209.701 L 239.358,236.712 L 266.369,236.712 L 266.369,209.701 L 239.358,209.701 Z" fill="#798970" marker-start="none" marker-end="none"/>
     <path d="M 266.37,182.69 L 266.37,209.701 L 293.381,209.701 L 293.381,182.69 L 266.37,182.69 Z" fill="#798970" marker-start="none" marker-end="none"/>
     <path d="M 266.369,155.679 L 266.369,182.69 L 293.38,182.69 L 293.38,155.679 L 266.369,155.679 Z" fill="#889780" marker-start="none" marker-end="none"/>
     <path d="M 239.359,182.69 L 239.359,209.701 L 266.37,209.701 L 266.37,182.69 L 239.359,182.69 Z" fill="#6b7b62" marker-start="none" marker-end="none"/>
     <path d="M 239.358,155.679 L 239.358,182.69 L 266.369,182.69 L 266.369,155.679 L 239.358,155.679 Z" fill="#798970" marker-start="none" marker-end="none"/>
     <path d="M 266.37,128.668 L 266.37,155.679 L 293.381,155.679 L 293.381,128.668 L 266.37,128.668 Z" fill="#798970" marker-start="none" marker-end="none"/>
     <path d="M 266.37,101.657 L 266.37,128.668 L 293.381,128.668 L 293.381,101.657 L 266.37,101.657 Z" fill="#889780" marker-start="none" marker-end="none"/>
     <path d="M 239.359,128.668 L 239.359,155.679 L 266.37,155.679 L 266.37,128.668 L 239.359,128.668 Z" fill="#6b7b62" marker-start="none" marker-end="none"/>
     <path d="M 239.358,101.657 L 239.358,128.668 L 266.369,128.668 L 266.369,101.657 L 239.358,101.657 Z" fill="#798970" marker-start="none" marker-end="none"/>
     <path d="M 293.379,86.45 L 266.368,86.885 L 266.369,101.657 L 293.38,101.657 L 293.379,86.45 Z" fill="#798970" marker-start="none" marker-end="none"/>
     <path d="M 266.368,86.885 L 258.923,87.005 C 252.122,87.114 244.979,89.043 239.358,92.887 L 239.358,101.657 L 266.369,101.657 L 266.368,86.885 Z" fill="#6b7b62" marker-start="none" marker-end="none"/>
     <path d="M 232.15,533.833 L 239.408,538.883 L 239.408,533.833 L 232.15,533.833 Z" fill="#889780" marker-start="none" marker-end="none"/>
     <path d="M 212.396,506.822 L 212.396,520.087 L 232.15,533.833 L 239.407,533.833 L 239.407,506.822 L 212.396,506.822 Z" fill="#798970" marker-start="none" marker-end="none"/>
     <path d="M 212.397,479.811 L 212.397,506.822 L 239.408,506.822 L 239.408,479.811 L 212.397,479.811 Z" fill="#889780" marker-start="none" marker-end="none"/>
     <path d="M 193.331,506.822 L 212.397,520.088 L 212.397,506.822 L 193.331,506.822 Z" fill="#6b7b62" marker-start="none" marker-end="none"/>
     <path d="M 185.387,479.811 L 185.387,501.293 L 193.331,506.822 L 212.398,506.822 L 212.398,479.811 L 185.387,479.811 Z" fill="#798970" marker-start="none" marker-end="none"/>
     <path d="M 212.397,452.8 L 212.397,479.811 L 239.408,479.811 L 239.408,452.8 L 212.397,452.8 Z" fill="#798970" marker-start="none" marker-end="none"/>
     <path d="M 212.396,425.789 L 212.396,452.8 L 239.407,452.8 L 239.407,425.789 L 212.396,425.789 Z" fill="#889780" marker-start="none" marker-end="none"/>
     <path d="M 185.386,452.8 L 185.386,479.811 L 212.397,479.811 L 212.397,452.8 L 185.386,452.8 Z" fill="#6b7b62" marker-start="none" marker-end="none"/>
     <path d="M 185.386,425.789 L 185.386,452.8 L 212.397,452.8 L 212.397,425.789 L 185.386,425.789 Z" fill="#798970" marker-start="none" marker-end="none"/>
     <path d="M 212.397,398.778 L 212.397,425.789 L 239.408,425.789 L 239.408,398.778 L 212.397,398.778 Z" fill="#798970" marker-start="none" marker-end="none"/>
     <path d="M 212.396,371.767 L 212.396,398.778 L 239.407,398.778 L 239.407,371.767 L 212.396,371.767 Z" fill="#889780" marker-start="none" marker-end="none"/>
     <path d="M 185.386,398.778 L 185.386,425.789 L 212.397,425.789 L 212.397,398.778 L 185.386,398.778 Z" fill="#6b7b62" marker-start="none" marker-end="none"/>
     <path d="M 185.386,371.767 L 185.386,398.778 L 212.397,398.778 L 212.397,371.767 L 185.386,371.767 Z" fill="#798970" marker-start="none" marker-end="none"/>
     <path d="M 212.397,344.756 L 212.397,371.767 L 239.408,371.767 L 239.408,344.756 L 212.397,344.756 Z" fill="#798970" marker-start="none" marker-end="none"/>
     <path d="M 212.397,317.745 L 212.397,344.756 L 239.408,344.756 L 239.408,317.745 L 212.397,317.745 Z" fill="#889780" marker-start="none" marker-end="none"/>
     <path d="M 185.387,344.756 L 185.387,371.767 L 212.398,371.767 L 212.398,344.756 L 185.387,344.756 Z" fill="#6b7b62" marker-start="none" marker-end="none"/>
     <path d="M 185.386,317.745 L 185.386,344.756 L 212.397,344.756 L 212.397,317.745 L 185.386,317.745 Z" fill="#798970" marker-start="none" marker-end="none"/>
     <path d="M 212.397,290.734 L 212.397,317.745 L 239.408,317.745 L 239.408,290.734 L 212.397,290.734 Z" fill="#798970" marker-start="none" marker-end="none"/>
     <path d="M 212.397,263.723 L 212.397,290.734 L 239.408,290.734 L 239.408,263.723 L 212.397,263.723 Z" fill="#889780" marker-start="none" marker-end="none"/>
     <path d="M 185.386,290.734 L 185.386,317.745 L 212.397,317.745 L 212.397,290.734 L 185.386,290.734 Z" fill="#6b7b62" marker-start="none" marker-end="none"/>
     <path d="M 185.387,263.723 L 185.387,290.734 L 212.398,290.734 L 212.398,263.723 L 185.387,263.723 Z" fill="#798970" marker-start="none" marker-end="none"/>
     <path d="M 212.396,236.712 L 212.396,263.723 L 239.407,263.723 L 239.407,236.712 L 212.396,236.712 Z" fill="#798970" marker-start="none" marker-end="none"/>
     <path d="M 212.397,209.701 L 212.397,236.712 L 239.408,236.712 L 239.408,209.701 L 212.397,209.701 Z" fill="#889780" marker-start="none" marker-end="none"/>
     <path d="M 185.386,236.712 L 185.386,263.723 L 212.397,263.723 L 212.397,236.712 L 185.386,236.712 Z" fill="#6b7b62" marker-start="none" marker-end="none"/>
     <path d="M 185.386,209.701 L 185.386,236.712 L 212.397,236.712 L 212.397,209.701 L 185.386,209.701 Z" fill="#798970" marker-start="none" marker-end="none"/>
     <path d="M 212.397,182.69 L 212.397,209.701 L 239.408,209.701 L 239.408,182.69 L 212.397,182.69 Z" fill="#798970" marker-start="none" marker-end="none"/>
     <path d="M 212.397,155.679 L 212.397,182.69 L 239.408,182.69 L 239.408,155.679 L 212.397,155.679 Z" fill="#889780" marker-start="none" marker-end="none"/>
     <path d="M 185.386,182.69 L 185.386,209.701 L 212.397,209.701 L 212.397,182.69 L 185.386,182.69 Z" fill="#6b7b62" marker-start="none" marker-end="none"/>
     <path d="M 185.386,155.679 L 185.386,182.69 L 212.397,182.69 L 212.397,155.679 L 185.386,155.679 Z" fill="#798970" marker-start="none" marker-end="none"/>
     <path d="M 212.397,128.668 L 212.397,155.679 L 239.408,155.679 L 239.408,128.668 L 212.397,128.668 Z" fill="#798970" marker-start="none" marker-end="none"/>
     <path d="M 226.971,101.657 L 212.397,111.982 L 212.397,128.668 L 239.408,128.668 L 239.408,101.657 L 226.971,101.657 Z" fill="#889780" marker-start="none" marker-end="none"/>
     <path d="M 188.843,128.668 L 185.386,131.117 L 185.386,155.679 L 212.397,155.679 L 212.397,128.668 L 188.843,128.668 Z" fill="#6b7b62" marker-start="none" marker-end="none"/>
     <path d="M 212.397,111.982 L 188.843,128.668 L 212.397,128.668 L 212.397,111.982 Z" fill="#798970" marker-start="none" marker-end="none"/>
     <path d="M 238.973,93.155 L 226.971,101.657 L 239.408,101.657 L 239.408,92.852 C 239.262,92.952 239.116,93.053 238.973,93.155 Z" fill="#798970" marker-start="none" marker-end="none"/>
     <path d="M 164.573,479.811 L 168.023,486.454 C 169.54,489.376 171.921,491.924 174.623,493.804 L 185.387,501.293 L 185.387,479.811 L 164.573,479.811 Z" fill="#889780" marker-start="none" marker-end="none"/>
     <path d="M 158.376,452.8 L 158.376,467.875 L 164.573,479.811 L 185.387,479.811 L 185.387,452.8 L 158.376,452.8 Z" fill="#798970" marker-start="none" marker-end="none"/>
     <path d="M 158.376,425.789 L 158.376,452.8 L 185.387,452.8 L 185.387,425.789 L 158.376,425.789 Z" fill="#889780" marker-start="none" marker-end="none"/>
     <path d="M 150.547,452.8 L 158.375,467.873 L 158.375,452.8 L 150.547,452.8 Z" fill="#6b7b62" marker-start="none" marker-end="none"/>
     <path d="M 136.522,425.789 L 150.547,452.8 L 158.375,452.8 L 158.375,425.789 L 136.522,425.789 Z" fill="#798970" marker-start="none" marker-end="none"/>
     <path d="M 158.376,398.778 L 158.376,425.789 L 185.387,425.789 L 185.387,398.778 L 158.376,398.778 Z" fill="#798970" marker-start="none" marker-end="none"/>
     <path d="M 158.375,371.767 L 158.375,398.778 L 185.386,398.778 L 185.386,371.767 L 158.375,371.767 Z" fill="#889780" marker-start="none" marker-end="none"/>
     <path d="M 131.365,398.778 L 131.365,415.857 L 136.522,425.789 L 158.376,425.789 L 158.376,398.778 L 131.365,398.778 Z" fill="#6b7b62" marker-start="none" marker-end="none"/>
     <path d="M 131.364,371.767 L 131.364,398.778 L 158.375,398.778 L 158.375,371.767 L 131.364,371.767 Z" fill="#798970" marker-start="none" marker-end="none"/>
     <path d="M 158.376,344.756 L 158.376,371.767 L 185.387,371.767 L 185.387,344.756 L 158.376,344.756 Z" fill="#798970" marker-start="none" marker-end="none"/>
     <path d="M 158.376,317.745 L 158.376,344.756 L 185.387,344.756 L 185.387,317.745 L 158.376,317.745 Z" fill="#889780" marker-start="none" marker-end="none"/>
     <path d="M 131.364,344.756 L 131.364,371.767 L 158.375,371.767 L 158.375,344.756 L 131.364,344.756 Z" fill="#6b7b62" marker-start="none" marker-end="none"/>
     <path d="M 131.364,317.745 L 131.364,344.756 L 158.375,344.756 L 158.375,317.745 L 131.364,317.745 Z" fill="#798970" marker-start="none" marker-end="none"/>
     <path d="M 158.375,290.734 L 158.375,317.745 L 185.386,317.745 L 185.386,290.734 L 158.375,290.734 Z" fill="#798970" marker-start="none" marker-end="none"/>
     <path d="M 158.376,263.723 L 158.376,290.734 L 185.387,290.734 L 185.387,263.723 L 158.376,263.723 Z" fill="#889780" marker-start="none" marker-end="none"/>
     <path d="M 131.364,290.734 L 131.364,317.745 L 158.375,317.745 L 158.375,290.734 L 131.364,290.734 Z" fill="#6b7b62" marker-start="none" marker-end="none"/>
     <path d="M 131.364,263.723 L 131.364,290.734 L 158.375,290.734 L 158.375,263.723 L 131.364,263.723 Z" fill="#798970" marker-start="none" marker-end="none"/>
     <path d="M 158.375,236.712 L 158.375,263.723 L 185.386,263.723 L 185.386,236.712 L 158.375,236.712 Z" fill="#798970" marker-start="none" marker-end="none"/>
     <path d="M 158.375,209.701 L 158.375,236.712 L 185.386,236.712 L 185.386,209.701 L 158.375,209.701 Z" fill="#889780" marker-start="none" marker-end="none"/>
     <path d="M 131.364,236.712 L 131.364,263.723 L 158.375,263.723 L 158.375,236.712 L 131.364,236.712 Z" fill="#6b7b62" marker-start="none" marker-end="none"/>
     <path d="M 134.148,209.701 L 131.364,215.145 L 131.364,236.712 L 158.375,236.712 L 158.375,209.701 L 134.148,209.701 Z" fill="#798970" marker-start="none" marker-end="none"/>
     <path d="M 158.376,182.69 L 158.376,209.701 L 185.387,209.701 L 185.387,182.69 L 158.376,182.69 Z" fill="#798970" marker-start="none" marker-end="none"/>
     <path d="M 161.782,155.679 L 158.375,162.34 L 158.375,182.69 L 185.386,182.69 L 185.386,155.679 L 161.782,155.679 Z" fill="#889780" marker-start="none" marker-end="none"/>
     <path d="M 147.965,182.69 L 134.148,209.701 L 158.375,209.701 L 158.375,182.69 L 147.965,182.69 Z" fill="#6b7b62" marker-start="none" marker-end="none"/>
     <path d="M 158.375,162.34 L 147.965,182.69 L 158.375,182.69 L 158.375,162.34 Z" fill="#798970" marker-start="none" marker-end="none"/>
     <path d="M 185.387,131.116 L 173.123,139.805 C 170.498,141.664 167.838,143.841 166.373,146.705 L 161.782,155.679 L 185.387,155.679 L 185.387,131.116 Z" fill="#798970" marker-start="none" marker-end="none"/>
     <path d="M 122.496,398.778 L 131.365,415.857 L 131.365,398.778 L 122.496,398.778 Z" fill="#798970" marker-start="none" marker-end="none"/>
     <path d="M 111.451,371.767 L 111.473,374.104 C 111.495,376.59 112.278,379.098 113.423,381.304 L 122.496,398.778 L 131.365,398.778 L 131.365,371.767 L 111.451,371.767 Z" fill="#889780" marker-start="none" marker-end="none"/>
     <path d="M 111.205,344.755 L 111.451,371.766 L 131.365,371.766 L 131.365,344.755 L 111.205,344.755 Z" fill="#798970" marker-start="none" marker-end="none"/>
     <path d="M 110.959,317.745 L 111.205,344.756 L 131.365,344.756 L 131.365,317.745 L 110.959,317.745 Z" fill="#889780" marker-start="none" marker-end="none"/>
     <path d="M 110.713,290.734 L 110.959,317.745 L 131.364,317.745 L 131.364,290.734 L 110.713,290.734 Z" fill="#798970" marker-start="none" marker-end="none"/>
     <path d="M 110.466,263.723 L 110.713,290.734 L 131.365,290.734 L 131.365,263.723 L 110.466,263.723 Z" fill="#889780" marker-start="none" marker-end="none"/>
     <path d="M 120.331,236.712 L 113.123,250.805 C 111.827,253.338 110.398,256.06 110.423,258.905 L 110.466,263.723 L 131.365,263.723 L 131.365,236.712 L 120.331,236.712 Z" fill="#798970" marker-start="none" marker-end="none"/>
     <path d="M 131.365,215.143 L 120.331,236.712 L 131.365,236.712 L 131.365,215.143 Z" fill="#889780" marker-start="none" marker-end="none"/>
    </g>
    <path d="M 250.073,546.304 L 174.623,493.804 C 171.921,491.924 169.54,489.376 168.023,486.454 L 113.423,381.304 C 112.278,379.098 111.495,376.59 111.473,374.104 L 110.423,258.905 C 110.398,256.06 111.827,253.338 113.123,250.805 L 166.373,146.705 C 167.838,143.841 170.498,141.664 173.123,139.805 L 238.973,93.155 C 244.651,89.133 251.966,87.117 258.923,87.005 L 445.222,84.005 L 463.522,84.155 C 474.439,84.244 484.897,92.692 491.272,101.555 L 583.522,229.805 L 597.472,290.105 L 595.822,404.704 L 466.222,549.754 L 250.073,546.304 Z" stroke-width="0.75" stroke-linejoin="round" stroke-linecap="round" marker-start="none" marker-end="none" stroke-miterlimit="79.8403193612775"/>
   </g>
   <g id="Square">
    <path d="M 471.726,351.845 L 252.491,351.845 L 252.491,281.72 L 471.726,281.72 L 471.726,351.845 Z" stroke="#bdbeb2" fill="#798970" stroke-width="0.375" stroke-linejoin="miter" stroke-linecap="round" marker-start="none" marker-end="none" stroke-miterlimit="79.8403193612775"/>
    <path d="M 364.037,350.414 L 355.336,350.414 L 355.336,283.435 L 364.037,283.435 L 364.037,350.414 Z" stroke="none" fill="#bdbeb2" stroke-width="0.75" stroke-linejoin="miter" stroke-linecap="round" marker-start="none" marker-end="none" stroke-miterlimit="79.8403193612775"/>
    <g id="Group_1" stroke-linejoin="round" stroke-linecap="round" stroke="#ffffff" stroke-width="0.375" fill="#bdbeb2" stroke-miterlimit="79.8403193612775">
     <path d="M 366.296,344.154 L 353.079,344.154" fill="none"/>
     <path d="M 363.972,344.227 L 363.972,350.413" fill="none"/>
     <path d="M 355.487,344.154 L 355.487,350.34" fill="none"/>
     <path d="M 366.296,289.622 L 353.079,289.622" fill="none"/>
     <path d="M 363.971,289.621 L 363.971,283.435" fill="none"/>
     <path d="M 355.487,289.622 L 355.487,283.436" fill="none"/>
    </g>
   </g>
   <g id="Labels">
    <g id="Group_2" stroke-linecap="round" fill="#4c4c4c">
     <path d="M 633.017,571.328 L 632.167,589.78 L 631.318,608.231 L 618.945,594.517 L 606.572,580.801 L 619.794,576.064 L 633.017,571.328 Z" stroke="#ffffff" stroke-width="0.75" stroke-linejoin="miter" marker-start="none" marker-end="none" stroke-miterlimit="79.8403193612775"/>
     <g id="Group_3" fill-rule="nonzero" stroke-linejoin="round" stroke="none" stroke-width="0.375" stroke-miterlimit="79.8403193612775">
      <g id="Group_4">
       <path d="M 607.137,560.009 L 612.94,576.054 L 615.238,575.223 L 618.381,561.174 L 618.403,561.166 L 622.533,572.585 L 624.99,571.696 L 619.188,555.651 L 616.885,556.483 L 613.738,570.508 L 613.694,570.524 L 609.572,559.128 L 607.137,560.009 Z" marker-start="none" marker-end="none"/>
      </g>
     </g>
    </g>
    <g id="Group_5" stroke-linecap="round" fill-rule="nonzero" stroke-linejoin="round" stroke="none" stroke-width="0.375" fill="#ffffff" stroke-miterlimit="79.8403193612775">
     <g id="Group_6">
      <path d="M 124.267,319.012 L 124.267,323.524 L 133.178,323.524 L 133.178,321.28 L 127.876,307.883 L 125.368,307.883 L 130.67,321.279 L 126.512,321.279 L 126.512,319.012 L 124.267,319.012 Z" marker-start="none" marker-end="none"/>
      <path d="M 136.739,319.17 C 136.739,318.438 136.97,317.881 137.432,317.499 C 137.894,317.118 138.412,316.928 138.984,316.928 C 139.556,316.928 140.074,317.118 140.536,317.499 C 140.998,317.881 141.229,318.438 141.229,319.17 C 141.229,319.903 140.998,320.46 140.536,320.841 C 140.074,321.222 139.556,321.413 138.984,321.413 C 138.412,321.413 137.894,321.222 137.432,320.841 C 136.97,320.46 136.739,319.903 136.739,319.17 Z M 134.209,312.436 C 134.209,313.961 134.825,315.135 136.056,315.956 C 135.587,316.382 135.209,316.844 134.923,317.343 C 134.637,317.841 134.494,318.435 134.494,319.125 C 134.494,320.387 134.923,321.458 135.782,322.338 C 136.64,323.218 137.707,323.658 138.984,323.658 C 140.246,323.658 141.31,323.218 142.176,322.338 C 143.042,321.458 143.475,320.387 143.475,319.125 C 143.475,318.435 143.328,317.841 143.035,317.343 C 142.741,316.844 142.367,316.382 141.913,315.956 C 143.144,315.135 143.759,313.961 143.759,312.436 C 143.759,311.042 143.286,309.913 142.34,309.047 C 141.394,308.182 140.275,307.749 138.984,307.749 C 137.679,307.749 136.557,308.182 135.618,309.047 C 134.679,309.913 134.209,311.042 134.209,312.436 Z M 136.454,312.459 C 136.454,311.74 136.707,311.146 137.213,310.677 C 137.719,310.207 138.31,309.972 138.984,309.972 C 139.644,309.972 140.231,310.207 140.744,310.677 C 141.257,311.146 141.514,311.74 141.514,312.459 C 141.514,313.178 141.257,313.772 140.744,314.242 C 140.231,314.711 139.644,314.946 138.984,314.946 C 138.31,314.946 137.719,314.711 137.213,314.242 C 136.707,313.772 136.454,313.178 136.454,312.459 Z" marker-start="none" marker-end="none"/>
     </g>
    </g>
    <g id="Group_7" stroke-linecap="round" fill-rule="nonzero" stroke-linejoin="round" stroke="none" stroke-width="0.375" fill="#ffffff" stroke-miterlimit="79.8403193612775">
     <g id="Group_8">
      <path d="M 551.18,319.012 L 551.18,323.524 L 560.091,323.524 L 560.091,321.28 L 554.789,307.883 L 552.281,307.883 L 557.583,321.279 L 553.425,321.279 L 553.425,319.012 L 551.18,319.012 Z" marker-start="none" marker-end="none"/>
      <path d="M 560.883,310.193 L 560.883,312.303 L 566.119,323.524 L 568.628,323.524 L 563.325,312.303 L 567.417,312.303 L 567.417,316.814 L 569.662,316.814 L 569.662,312.303 L 570.917,312.303 L 570.917,310.193 L 569.662,310.193 L 569.662,307.883 L 567.417,307.883 L 567.417,310.193 L 560.883,310.193 Z" marker-start="none" marker-end="none"/>
     </g>
    </g>
    <g id="Group_9" stroke-linecap="round" fill-rule="nonzero" stroke-linejoin="round" stroke="none" stroke-width="0.375" fill="#ffffff" stroke-miterlimit="79.8403193612775">
     <g id="Group_10">
      <path d="M 350.777,526.418 L 350.777,530.93 L 359.688,530.93 L 359.688,528.686 L 354.386,515.288 L 351.878,515.288 L 357.18,528.685 L 353.022,528.685 L 353.022,526.418 L 350.777,526.418 Z" marker-start="none" marker-end="none"/>
      <path d="M 360.918,515.288 L 360.918,517.379 L 367.033,525.035 C 367.268,525.343 367.422,525.622 367.495,525.871 C 367.569,526.12 367.605,526.362 367.605,526.597 C 367.605,527.14 367.411,527.646 367.023,528.115 C 366.634,528.584 366.11,528.819 365.45,528.819 C 364.834,528.819 364.31,528.617 363.878,528.214 C 363.445,527.81 363.207,527.256 363.163,526.552 L 360.918,526.552 C 360.918,527.829 361.347,528.9 362.205,529.765 C 363.063,530.631 364.086,531.064 365.274,531.064 C 366.58,531.064 367.665,530.628 368.531,529.755 C 369.396,528.882 369.829,527.823 369.829,526.576 C 369.829,525.52 369.521,524.604 368.905,523.826 L 363.866,517.512 L 369.829,517.512 L 369.829,515.288 L 360.918,515.288 Z" marker-start="none" marker-end="none"/>
     </g>
    </g>
    <g id="Group_11" stroke-linecap="round" fill-rule="nonzero" stroke-linejoin="round" stroke="none" stroke-width="0.375" fill="#ffffff" stroke-miterlimit="79.8403193612775">
     <g id="Group_12">
      <path d="M 350.806,111.436 L 350.806,115.948 L 359.717,115.948 L 359.717,113.704 L 354.415,100.307 L 351.907,100.307 L 357.209,113.703 L 353.051,113.703 L 353.051,111.436 L 350.806,111.436 Z" marker-start="none" marker-end="none"/>
      <path d="M 360.947,100.307 L 360.947,102.397 L 367.062,110.053 C 367.297,110.361 367.451,110.64 367.524,110.889 C 367.598,111.138 367.634,111.38 367.634,111.615 C 367.634,112.158 367.44,112.664 367.052,113.133 C 366.663,113.602 366.139,113.837 365.479,113.837 C 364.863,113.837 364.339,113.635 363.907,113.232 C 363.474,112.828 363.236,112.274 363.192,111.57 L 360.947,111.57 C 360.947,112.847 361.376,113.918 362.234,114.783 C 363.092,115.649 364.115,116.082 365.303,116.082 C 366.609,116.082 367.694,115.646 368.56,114.773 C 369.425,113.9 369.858,112.841 369.858,111.594 C 369.858,110.538 369.55,109.622 368.934,108.844 L 363.895,102.531 L 369.858,102.531 L 369.858,100.307 L 360.947,100.307 Z" marker-start="none" marker-end="none"/>
     </g>
    </g>
    <g id="Group_13" stroke-linecap="round" fill-rule="nonzero" stroke-linejoin="round" stroke="none" stroke-width="0.375" fill="#ffffff" stroke-miterlimit="79.8403193612775">
     <g id="Group_14">
      <path d="M 498.743,465.65 L 498.743,470.162 L 507.654,470.162 L 507.654,467.918 L 502.352,454.521 L 499.844,454.521 L 505.146,467.917 L 500.988,467.917 L 500.988,465.65 L 498.743,465.65 Z" marker-start="none" marker-end="none"/>
      <path d="M 508.446,456.831 L 508.446,458.941 L 513.682,470.162 L 516.191,470.162 L 510.888,458.941 L 514.98,458.941 L 514.98,463.452 L 517.225,463.452 L 517.225,458.941 L 518.48,458.941 L 518.48,456.831 L 517.225,456.831 L 517.225,454.521 L 514.98,454.521 L 514.98,456.831 L 508.446,456.831 Z" marker-start="none" marker-end="none"/>
     </g>
    </g>
    <g id="Group_15" stroke-linecap="round" fill-rule="nonzero" stroke-linejoin="round" stroke="none" stroke-width="0.375" fill="#ffffff" stroke-miterlimit="79.8403193612775">
     <g id="Group_16">
      <path d="M 503.431,176.163 L 503.431,180.675 L 512.342,180.675 L 512.342,178.431 L 507.04,165.034 L 504.532,165.034 L 509.834,178.43 L 505.676,178.43 L 505.676,176.163 L 503.431,176.163 Z" marker-start="none" marker-end="none"/>
      <path d="M 513.134,167.344 L 513.134,169.454 L 518.37,180.675 L 520.879,180.675 L 515.576,169.454 L 519.668,169.454 L 519.668,173.965 L 521.913,173.965 L 521.913,169.454 L 523.168,169.454 L 523.168,167.344 L 521.913,167.344 L 521.913,165.034 L 519.668,165.034 L 519.668,167.344 L 513.134,167.344 Z" marker-start="none" marker-end="none"/>
     </g>
    </g>
    <g id="Group_17" stroke-linecap="round" fill-rule="nonzero" stroke-linejoin="round" stroke="none" stroke-width="0.375" fill="#ffffff" stroke-miterlimit="79.8403193612775">
     <g id="Group_18">
      <path d="M 183.865,160.503 C 183.865,159.771 184.096,159.214 184.558,158.832 C 185.02,158.451 185.538,158.261 186.11,158.261 C 186.682,158.261 187.2,158.451 187.662,158.832 C 188.124,159.214 188.355,159.771 188.355,160.503 C 188.355,161.236 188.124,161.793 187.662,162.174 C 187.2,162.555 186.682,162.746 186.11,162.746 C 185.538,162.746 185.02,162.555 184.558,162.174 C 184.096,161.793 183.865,161.236 183.865,160.503 Z M 181.335,153.769 C 181.335,155.294 181.951,156.468 183.182,157.289 C 182.713,157.715 182.335,158.177 182.049,158.676 C 181.763,159.174 181.62,159.768 181.62,160.458 C 181.62,161.72 182.049,162.791 182.908,163.671 C 183.766,164.551 184.833,164.991 186.11,164.991 C 187.372,164.991 188.436,164.551 189.302,163.671 C 190.168,162.791 190.601,161.72 190.601,160.458 C 190.601,159.768 190.454,159.174 190.161,158.676 C 189.867,158.177 189.493,157.715 189.039,157.289 C 190.27,156.468 190.885,155.294 190.885,153.769 C 190.885,152.375 190.412,151.246 189.466,150.38 C 188.52,149.515 187.401,149.082 186.11,149.082 C 184.805,149.082 183.683,149.515 182.744,150.38 C 181.805,151.246 181.335,152.375 181.335,153.769 Z M 183.58,153.792 C 183.58,153.073 183.833,152.479 184.339,152.01 C 184.845,151.54 185.436,151.305 186.11,151.305 C 186.77,151.305 187.357,151.54 187.87,152.01 C 188.383,152.479 188.64,153.073 188.64,153.792 C 188.64,154.511 188.383,155.105 187.87,155.575 C 187.357,156.044 186.77,156.279 186.11,156.279 C 185.436,156.279 184.845,156.044 184.339,155.575 C 183.833,155.105 183.58,154.511 183.58,153.792 Z" marker-start="none" marker-end="none"/>
      <path d="M 198.873,153.703 L 198.873,160.348 C 198.873,161.11 198.671,161.701 198.268,162.119 C 197.865,162.537 197.333,162.746 196.673,162.746 C 195.998,162.746 195.463,162.537 195.067,162.119 C 194.671,161.701 194.473,161.11 194.473,160.348 L 194.473,153.703 C 194.473,152.941 194.671,152.35 195.067,151.932 C 195.463,151.514 195.998,151.305 196.673,151.305 C 197.333,151.305 197.865,151.514 198.268,151.932 C 198.671,152.35 198.873,152.941 198.873,153.703 Z M 192.229,153.57 L 192.229,160.48 C 192.229,161.918 192.68,163.029 193.582,163.814 C 194.484,164.599 195.514,164.991 196.673,164.991 C 197.817,164.991 198.844,164.599 199.753,163.814 C 200.663,163.029 201.118,161.918 201.117,160.48 L 201.117,153.57 C 201.118,152.133 200.663,151.026 199.753,150.248 C 198.844,149.471 197.817,149.082 196.673,149.082 C 195.514,149.082 194.484,149.471 193.582,150.248 C 192.68,151.026 192.229,152.133 192.229,153.57 Z" marker-start="none" marker-end="none"/>
     </g>
    </g>
    <g id="Group_19" stroke-linecap="round" fill-rule="nonzero" stroke-linejoin="round" stroke="none" stroke-width="0.375" fill="#ffffff" stroke-miterlimit="79.8403193612775">
     <g id="Group_20">
      <path d="M 181.297,476.47 C 181.297,475.738 181.528,475.181 181.99,474.799 C 182.452,474.418 182.97,474.228 183.542,474.228 C 184.114,474.228 184.632,474.418 185.094,474.799 C 185.556,475.181 185.787,475.738 185.787,476.47 C 185.787,477.203 185.556,477.76 185.094,478.141 C 184.632,478.522 184.114,478.713 183.542,478.713 C 182.97,478.713 182.452,478.522 181.99,478.141 C 181.528,477.76 181.297,477.203 181.297,476.47 Z M 178.767,469.736 C 178.767,471.261 179.383,472.435 180.614,473.256 C 180.145,473.682 179.767,474.144 179.481,474.643 C 179.195,475.141 179.052,475.735 179.052,476.425 C 179.052,477.687 179.481,478.758 180.34,479.638 C 181.198,480.518 182.265,480.958 183.542,480.958 C 184.804,480.958 185.868,480.518 186.734,479.638 C 187.6,478.758 188.033,477.687 188.033,476.425 C 188.033,475.735 187.886,475.141 187.593,474.643 C 187.299,474.144 186.925,473.682 186.471,473.256 C 187.702,472.435 188.317,471.261 188.317,469.736 C 188.317,468.342 187.844,467.213 186.898,466.347 C 185.952,465.482 184.833,465.049 183.542,465.049 C 182.237,465.049 181.115,465.482 180.176,466.347 C 179.237,467.213 178.767,468.342 178.767,469.736 Z M 181.012,469.759 C 181.012,469.04 181.265,468.446 181.771,467.977 C 182.277,467.507 182.868,467.272 183.542,467.272 C 184.202,467.272 184.789,467.507 185.302,467.977 C 185.815,468.446 186.072,469.04 186.072,469.759 C 186.072,470.478 185.815,471.072 185.302,471.542 C 184.789,472.011 184.202,472.246 183.542,472.246 C 182.868,472.246 182.277,472.011 181.771,471.542 C 181.265,471.072 181.012,470.478 181.012,469.759 Z" marker-start="none" marker-end="none"/>
      <path d="M 189.526,465.183 L 189.526,467.273 L 195.641,474.929 C 195.876,475.237 196.03,475.516 196.103,475.765 C 196.177,476.014 196.213,476.256 196.213,476.491 C 196.213,477.034 196.019,477.54 195.631,478.009 C 195.242,478.478 194.718,478.713 194.058,478.713 C 193.442,478.713 192.918,478.511 192.486,478.108 C 192.053,477.704 191.815,477.15 191.771,476.446 L 189.526,476.446 C 189.526,477.723 189.955,478.794 190.813,479.659 C 191.671,480.525 192.694,480.958 193.882,480.958 C 195.188,480.958 196.273,480.522 197.139,479.649 C 198.004,478.776 198.437,477.717 198.437,476.47 C 198.437,475.414 198.129,474.498 197.513,473.72 L 192.474,467.407 L 198.437,467.407 L 198.437,465.183 L 189.526,465.183 Z" marker-start="none" marker-end="none"/>
     </g>
    </g>
    <path d="M 119.352,373.234 C 119.344,374.883 119.794,376.57 120.552,378.034 L 173.052,479.434 C 173.817,480.911 174.411,482.649 175.752,483.634 L 247.362,536.224 C 248.552,537.097 249.786,538.305 251.262,538.324 L 461.086,541.124 C 462.874,541.147 464.723,540.082 465.886,538.724 L 572.086,414.749 C 573.258,413.38 575.081,412.051 575.086,410.249 L 575.651,236.435 C 575.656,234.727 574.856,233.016 573.851,231.635 L 476.611,98.1 C 475.57,96.67 474.48,94.494 472.711,94.5 L 254.836,95.25 C 253.065,95.256 251.172,95.714 249.736,96.75 L 180.428,146.762 C 179.223,147.631 177.823,148.449 177.128,149.762 L 122.352,253.235 C 121.473,254.895 119.961,256.457 119.952,258.335 L 119.352,373.234 Z" fill="none" stroke-linecap="round" stroke="#ffffff" stroke-width="1.5" stroke-linejoin="miter" marker-start="none" marker-end="none" stroke-miterlimit="79.8403193612775"/>
   </g>
  </g>
 </g>
</svg>
